<svg xmlns="http://www.w3.org/2000/svg" width="148" height="306" fill="none"><path fill="url(#a)" fill-rule="evenodd" d="M8.855 245.959c-1.076-4.325-4.039-6.481-4.039-6.481l-3.855 2.39s2.962 2.156 4.039 6.48l3.855-2.389Z" clip-rule="evenodd"/><path fill="url(#b)" fill-rule="evenodd" d="M5.895 128.684c-1.077-4.326-4.04-6.481-4.04-6.481L-2 124.593s2.963 2.155 4.039 6.479l3.856-2.388Z" clip-rule="evenodd"/><path fill="url(#c)" fill-rule="evenodd" d="M8.997 185.275c3.643-5.807 2.712-11.283 2.712-11.283l-7.05-1.528s.931 5.476-2.712 11.283l7.05 1.528Z" clip-rule="evenodd"/><path fill="url(#d)" fill-rule="evenodd" d="M73 29.315c-1.587-8.25-6.724-12.561-6.724-12.561l-7.092 4.192s5.136 4.311 6.723 12.561L73 29.315Z" clip-rule="evenodd"/><path fill="url(#e)" fill-rule="evenodd" d="M78.921 131.696c-4.394-6.63-10.69-8.508-10.69-8.508l-5.1 6.277s6.295 1.877 10.69 8.506l5.1-6.275Z" clip-rule="evenodd"/><path fill="url(#f)" fill-rule="evenodd" d="M30.063 168.522c2.326-4.849 1.233-9.124 1.233-9.124l-5.417-.731s1.092 4.275-1.234 9.123l5.418.732Z" clip-rule="evenodd"/><path fill="url(#g)" fill-rule="evenodd" d="M19.876 84.754c5.79-1.414 8.716-5.472 8.716-5.472l-3.126-5.369s-2.925 4.058-8.716 5.471l3.126 5.37Z" clip-rule="evenodd"/><path fill="url(#h)" fill-rule="evenodd" d="M17.243 52.32c-1.128-7.365-5.84-11.421-5.84-11.421l-6.989 3.36s4.714 4.056 5.841 11.422l6.988-3.361Z" clip-rule="evenodd"/><path fill="url(#i)" fill-rule="evenodd" d="M21.64 281.855c4.26-1.694 9.913-7.068 9.913-7.068l-1.929-1.801s-5.653 5.374-9.913 7.068l1.929 1.801Z" clip-rule="evenodd"/><path fill="url(#j)" fill-rule="evenodd" d="M52.77 244.375c-4.329-4.099-9.22-4.404-9.22-4.404l-2.622 5.45s4.89.306 9.219 4.405l2.623-5.451Z" clip-rule="evenodd"/><path fill="url(#k)" fill-rule="evenodd" d="M50.778 206.167c-.948 4.895-8.44 11.322-11.522 11.133.527-.268-.894-8.027-1.289-7.739 2.824-.654 7.498-8.353 6.713-12.952.1.192 3.373 3.833 3.507 4.308.359.283 2.845 4.703 2.59 5.25Z" clip-rule="evenodd"/><path fill="url(#l)" fill-rule="evenodd" d="M38.936 112.544c-.948 4.894-8.44 11.322-11.522 11.133.527-.269-.894-8.028-1.289-7.739 2.823-.654 7.498-8.353 6.712-12.953.102.193 3.374 3.834 3.508 4.309.359.283 2.845 4.703 2.59 5.25Z" clip-rule="evenodd"/><path fill="#FFD462" fill-rule="evenodd" d="M107.046 78.348c-2.945 7.973-7.578 14.903-13.756 20.576-.37.34-3.08.364-3.325.389-2.68.274-5.361.527-8.043.773-2.682.247-5.365.487-8.05.706-.075.006-3.093-.003-3.34.222 6.18-5.673 10.812-12.602 13.757-20.575.345-.935 10.42-1.076 11.369-1.163.848-.078 11.139-.253 11.388-.928Z" clip-rule="evenodd"/><path fill="url(#m)" fill-rule="evenodd" d="M51.728 181.826c-1.382.644-1.919 1.793-1.919 1.793l1.042 1.164s.537-1.15 1.919-1.793l-1.042-1.164Z" clip-rule="evenodd"/><path fill="url(#n)" fill-rule="evenodd" d="M4.36 90.174c-1.382.644-1.92 1.793-1.92 1.793l1.043 1.163s.537-1.149 1.918-1.793L4.36 90.174Z" clip-rule="evenodd"/><path fill="url(#o)" fill-rule="evenodd" d="M79.415 173.151c.764 1.345 1.934 1.776 1.934 1.776l1.026-1.179s-1.17-.432-1.935-1.777l-1.025 1.18Z" clip-rule="evenodd"/><path fill="url(#p)" fill-rule="evenodd" d="M19.217 210.6c.765 1.345 1.935 1.777 1.935 1.777l1.026-1.18s-1.17-.432-1.935-1.777l-1.026 1.18Z" clip-rule="evenodd"/><path fill="url(#q)" fill-rule="evenodd" d="M75.298 149.797c-1.478.165-2.298.888-2.298.888l.662 1.083s.82-.722 2.298-.887l-.662-1.084Z" clip-rule="evenodd"/><path fill="url(#r)" fill-rule="evenodd" d="M19.048 15.768c-1.478.165-2.298.888-2.298.888l.662 1.083s.82-.723 2.299-.887l-.663-1.084Z" clip-rule="evenodd"/><path fill="url(#s)" fill-rule="evenodd" d="M91.022 204.493c-1.336.795-1.74 1.969-1.74 1.969l1.222.987s.403-1.174 1.74-1.969l-1.222-.987Z" clip-rule="evenodd"/><path fill="url(#t)" fill-rule="evenodd" d="M39.706 303.043c-1.336.795-1.739 1.97-1.739 1.97l1.221.987s.403-1.174 1.74-1.969l-1.222-.988Z" clip-rule="evenodd"/><path fill="#6149ED" fill-rule="evenodd" d="M101.825 46.362c-3.32-1.967-6.684-4.11-10.325-5.454-1.61-.594-3.31-.804-4.987-.372-1.585.408-2.926 1.404-4.023 2.577a11.371 11.371 0 0 0-1.316 1.723c-.085.355-.167.733-.257 1.165-.194.93-.358 1.868-.528 2.804-.864 4.75-2.217 9.595-4.714 13.775-1.602 2.681-4.17 5.136-7.443 5.404-.375.03-.751.013-1.125-.02-.214-.019.864-3.06.926-3.217.284-.733.587-1.462.937-2.167.025-.051.36-.852.553-.835 3.21.284 6.052-1.735 7.745-4.312l.103-.163c.066-.277.127-.557.188-.836.387-1.787 1.197-3.883 1.57-5.673.547-2.626.847-4.897 1.872-7.376.832-2.015 1.788-4.004 3.151-5.724 2.088-2.634 5.188-4.128 8.558-3.34 1.782.416 3.441 1.324 5.055 2.153a93.054 93.054 0 0 1 5.423 3.03c2.408 1.451 5.776 3.65 8.483 1.562l.035-.03c.124-1.762.024-3.55-.033-5.313-.12-3.764-.288-7.543.257-11.285.358-2.452 1.085-4.801 1.981-7.111.872-2.245 1.853-4.624 3.593-6.359 2.653-2.644 6.694-3.232 10.283-3.28 3.77-.05 7.59.393 11.266-.67 3.403-.983 6.518-3.282 8.388-6.279.074-.122.148-.245.219-.369-.032.054.361-.663.339-.23-.026.496-.235 1.03-.387 1.493-.468 1.425-.994 2.914-1.754 4.216-1.834 3.145-4.593 5.6-7.998 6.967-3.531 1.418-7.395 1.148-11.119 1.095-3.672-.052-7.743.204-10.757 2.534a8.24 8.24 0 0 0-1.483 1.511c-.25 1.363-.362 2.753-.427 4.133-.178 3.773.142 7.548.152 11.32.004 1.824-.198 3.58-.675 5.344-.466 1.72-1.149 3.392-1.866 5.021-.442 1.007-.956 2.03-1.686 2.866-2.289 2.619-5.699 1.188-8.174-.278Z" clip-rule="evenodd"/><defs><linearGradient id="a" x1="8.856" x2="8.856" y1="239.478" y2="248.348" gradientUnits="userSpaceOnUse"><stop stop-color="#A93B80"/><stop offset="1" stop-color="#4E76A8"/></linearGradient><linearGradient id="b" x1="5.895" x2="5.895" y1="122.203" y2="131.072" gradientUnits="userSpaceOnUse"><stop stop-color="#A93B80"/><stop offset="1" stop-color="#4E76A8"/></linearGradient><linearGradient id="c" x1="11.815" x2="11.815" y1="172.464" y2="185.275" gradientUnits="userSpaceOnUse"><stop stop-color="#DF607B"/><stop offset="1" stop-color="#D03383"/></linearGradient><linearGradient id="d" x1="73" x2="73" y1="16.754" y2="33.507" gradientUnits="userSpaceOnUse"><stop stop-color="#B3D097"/><stop offset="1" stop-color="#86BB61"/></linearGradient><linearGradient id="e" x1="78.921" x2="78.921" y1="123.188" y2="137.971" gradientUnits="userSpaceOnUse"><stop stop-color="#F4D944"/><stop offset="1" stop-color="#C9CD4F"/></linearGradient><linearGradient id="f" x1="31.553" x2="31.553" y1="158.667" y2="168.522" gradientUnits="userSpaceOnUse"><stop stop-color="#ECB769"/><stop offset="1" stop-color="#E9A94E"/></linearGradient><linearGradient id="g" x1="28.591" x2="28.591" y1="73.913" y2="84.754" gradientUnits="userSpaceOnUse"><stop stop-color="#DF607B"/><stop offset="1" stop-color="#D03383"/></linearGradient><linearGradient id="h" x1="17.244" x2="17.244" y1="40.899" y2="55.681" gradientUnits="userSpaceOnUse"><stop stop-color="#A93B80"/><stop offset="1" stop-color="#4E76A8"/></linearGradient><linearGradient id="i" x1="31.553" x2="31.553" y1="272.986" y2="281.855" gradientUnits="userSpaceOnUse"><stop stop-color="#D92F75"/><stop offset="1" stop-color="#E9A94E"/></linearGradient><linearGradient id="j" x1="52.771" x2="52.771" y1="239.971" y2="249.827" gradientUnits="userSpaceOnUse"><stop stop-color="#B03D6D"/><stop offset="1" stop-color="#A93B80"/></linearGradient><linearGradient id="k" x1="31.982" x2="48.25" y1="199.289" y2="195.703" gradientUnits="userSpaceOnUse"><stop stop-color="#56BFE0"/><stop offset="1" stop-color="#00A1D5"/></linearGradient><linearGradient id="l" x1="20.139" x2="36.408" y1="105.666" y2="102.08" gradientUnits="userSpaceOnUse"><stop stop-color="#56BFE0"/><stop offset="1" stop-color="#00A1D5"/></linearGradient><linearGradient id="m" x1="49.258" x2="50.591" y1="183.999" y2="181.275" gradientUnits="userSpaceOnUse"><stop stop-color="#56BFE0"/><stop offset="1" stop-color="#00A1D5"/></linearGradient><linearGradient id="n" x1="1.89" x2="3.223" y1="92.347" y2="89.623" gradientUnits="userSpaceOnUse"><stop stop-color="#56BFE0"/><stop offset="1" stop-color="#00A1D5"/></linearGradient><linearGradient id="o" x1="79.404" x2="80.377" y1="173.967" y2="171.967" gradientUnits="userSpaceOnUse"><stop stop-color="#B03D6D"/><stop offset="1" stop-color="#A93B80"/></linearGradient><linearGradient id="p" x1="19.207" x2="20.18" y1="211.417" y2="209.417" gradientUnits="userSpaceOnUse"><stop stop-color="#B03D6D"/><stop offset="1" stop-color="#A93B80"/></linearGradient><linearGradient id="q" x1="72.245" x2="72.884" y1="151.391" y2="149.104" gradientUnits="userSpaceOnUse"><stop stop-color="#A93B80"/><stop offset="1" stop-color="#4E76A8"/></linearGradient><linearGradient id="r" x1="15.995" x2="16.634" y1="17.362" y2="15.075" gradientUnits="userSpaceOnUse"><stop stop-color="#A93B80"/><stop offset="1" stop-color="#4E76A8"/></linearGradient><linearGradient id="s" x1="88.801" x2="90.14" y1="206.578" y2="204.015" gradientUnits="userSpaceOnUse"><stop stop-color="#F4D944"/><stop offset="1" stop-color="#C9CD4F"/></linearGradient><linearGradient id="t" x1="37.485" x2="38.824" y1="305.129" y2="302.566" gradientUnits="userSpaceOnUse"><stop stop-color="#F4D944"/><stop offset="1" stop-color="#C9CD4F"/></linearGradient></defs></svg>
