<svg xmlns="http://www.w3.org/2000/svg" width="150" height="304" fill="none"><path fill="url(#a)" fill-rule="evenodd" d="M140.599 58.846c1.08 4.346 4.052 6.512 4.052 6.512l3.869-2.401s-2.973-2.166-4.053-6.51l-3.868 2.4Z" clip-rule="evenodd"/><path fill="url(#b)" fill-rule="evenodd" d="M142.579 171.729c1.08 4.345 4.053 6.511 4.053 6.511l3.868-2.401s-2.972-2.166-4.052-6.511l-3.869 2.401Z" clip-rule="evenodd"/><path fill="url(#c)" fill-rule="evenodd" d="M138.972 117.343c-3.655 5.386-2.722 10.465-2.722 10.465l7.073 1.418s-.933-5.079 2.722-10.465l-7.073-1.418Z" clip-rule="evenodd"/><path fill="url(#d)" fill-rule="evenodd" d="M78.223 266.371c1.478 7.802 6.264 11.879 6.264 11.879l6.607-3.964s-4.785-4.077-6.263-11.879l-6.608 3.964Z" clip-rule="evenodd"/><path fill="url(#e)" fill-rule="evenodd" d="M73.272 168.282c4.134 6.217 10.054 7.978 10.054 7.978l4.798-5.886s-5.921-1.761-10.054-7.977l-4.798 5.885Z" clip-rule="evenodd"/><path fill="url(#f)" fill-rule="evenodd" d="M120.312 132.691c-2.335 4.872-1.237 9.168-1.237 9.168l5.435.734s-1.097-4.295 1.238-9.166l-5.436-.736Z" clip-rule="evenodd"/><path fill="url(#g)" fill-rule="evenodd" d="M129.308 212.402c-5.325 1.42-8.016 5.497-8.016 5.497l2.875 5.395s2.691-4.077 8.016-5.497l-2.875-5.395Z" clip-rule="evenodd"/><path fill="url(#h)" fill-rule="evenodd" d="M131.193 245.26c1.045 6.907 5.409 10.711 5.409 10.711l6.472-3.152s-4.365-3.804-5.409-10.711l-6.472 3.152Z" clip-rule="evenodd"/><path fill="url(#i)" fill-rule="evenodd" d="M131.238 30.206c-4.274 1.891-9.946 7.89-9.946 7.89l1.935 2.012s5.672-6 9.946-7.892l-1.935-2.01Z" clip-rule="evenodd"/><path fill="url(#j)" fill-rule="evenodd" d="M98.025 60.933c3.981 4.119 8.479 4.425 8.479 4.425l2.412-5.476s-4.498-.307-8.479-4.426l-2.412 5.477Z" clip-rule="evenodd"/><path fill="url(#k)" fill-rule="evenodd" d="M100.517 96.314c.877-4.683 7.816-10.834 10.67-10.653-.488.257.829 7.681 1.194 7.405-2.615.626-6.944 7.994-6.216 12.395-.094-.184-3.124-3.668-3.249-4.123-.332-.271-2.635-4.5-2.399-5.024Z" clip-rule="evenodd"/><path fill="url(#l)" fill-rule="evenodd" d="M111.408 186.422c.877-4.684 7.816-10.834 10.67-10.653-.488.257.829 7.681 1.194 7.405-2.615.626-6.944 7.994-6.216 12.395-.094-.185-3.124-3.669-3.249-4.123-.332-.271-2.635-4.501-2.399-5.024Z" clip-rule="evenodd"/><path fill="#7DD79C" fill-rule="evenodd" d="M45.55 218.838c2.795-7.663 7.192-14.323 13.055-19.775.352-.327 2.923-.35 3.156-.374 2.543-.263 5.088-.506 7.633-.743 2.546-.237 5.091-.468 7.64-.678.07-.006 2.935.002 3.169-.214-5.864 5.452-10.26 12.112-13.056 19.775-.327.898-9.889 1.033-10.79 1.117-.805.075-10.571.243-10.807.892Z" clip-rule="evenodd"/><path fill="url(#m)" fill-rule="evenodd" d="M98.575 120.314c1.386-.647 1.925-1.802 1.925-1.802l-1.045-1.169s-.539 1.155-1.925 1.802l1.045 1.169Z" clip-rule="evenodd"/><path fill="url(#n)" fill-rule="evenodd" d="M144.119 208.441c1.387-.647 1.926-1.802 1.926-1.802l-1.046-1.168s-.538 1.154-1.925 1.801l1.045 1.169Z" clip-rule="evenodd"/><path fill="url(#o)" fill-rule="evenodd" d="M72.777 129.03c-.767-1.352-1.941-1.785-1.941-1.785l-1.03 1.185s1.175.435 1.942 1.786l1.03-1.186Z" clip-rule="evenodd"/><path fill="url(#p)" fill-rule="evenodd" d="M130.203 92.393c-.767-1.352-1.941-1.785-1.941-1.785l-1.029 1.185s1.174.434 1.941 1.785l1.029-1.185Z" clip-rule="evenodd"/><path fill="url(#q)" fill-rule="evenodd" d="M76.907 151.505c1.483-.166 2.306-.892 2.306-.892l-.665-1.089s-.822.727-2.305.892l.664 1.089Z" clip-rule="evenodd"/><path fill="url(#r)" fill-rule="evenodd" d="M130.373 280.23c1.483-.166 2.305-.892 2.305-.892l-.664-1.088s-.823.726-2.306.891l.665 1.089Z" clip-rule="evenodd"/><path fill="url(#s)" fill-rule="evenodd" d="M61.132 99.52c1.34-.8 1.744-1.98 1.744-1.98l-1.225-.991s-.404 1.18-1.745 1.978l1.226.992Z" clip-rule="evenodd"/><path fill="url(#t)" fill-rule="evenodd" d="M110.637 3.47c1.34-.798 1.744-1.978 1.744-1.978L111.156.5s-.404 1.18-1.745 1.978l1.226.993Z" clip-rule="evenodd"/><path fill="#FF3A9C" fill-rule="evenodd" d="M44.567 258.943c3.17 1.89 6.38 3.949 9.854 5.242 1.538.57 3.16.772 4.76.357 1.512-.392 2.792-1.349 3.839-2.477a10.91 10.91 0 0 0 1.256-1.656c.081-.341.16-.704.245-1.119.185-.895.342-1.795.505-2.695.824-4.566 2.115-9.221 4.498-13.239 1.529-2.577 3.98-4.936 7.104-5.194a6.414 6.414 0 0 1 1.073.019c.204.019-.825 2.941-.884 3.092a24.79 24.79 0 0 1-.894 2.083c-.023.05-.343.819-.528.803-3.063-.274-5.775 1.667-7.391 4.144l-.099.156c-.063.267-.121.535-.18.803-.369 1.719-1.142 3.733-1.497 5.453-.523 2.524-.808 4.706-1.786 7.089-.795 1.937-1.707 3.848-3.008 5.501-1.993 2.532-4.95 3.967-8.167 3.211-1.7-.401-3.285-1.273-4.825-2.07a88.329 88.329 0 0 1-5.175-2.913c-2.298-1.394-5.512-3.508-8.096-1.5l-.033.029c-.118 1.693-.023 3.412.031 5.106.115 3.617.275 7.249-.245 10.846-.342 2.356-1.036 4.614-1.891 6.833-.832 2.158-1.769 4.445-3.429 6.112-2.531 2.542-6.389 3.106-9.814 3.152-3.597.048-7.243-.377-10.75.644-3.25.945-6.222 3.155-8.006 6.034-.071.118-.141.236-.21.355.03-.052-.344.638-.323.222.025-.477.224-.99.37-1.436.446-1.369.948-2.8 1.673-4.051 1.75-3.023 4.384-5.382 7.633-6.696 3.37-1.363 7.058-1.103 10.612-1.053 3.504.051 7.39-.196 10.266-2.435a7.91 7.91 0 0 0 1.416-1.452c.238-1.31.344-2.646.407-3.972.17-3.626-.136-7.254-.145-10.88-.004-1.753.188-3.44.644-5.135.444-1.653 1.096-3.261 1.78-4.826.422-.968.913-1.951 1.61-2.754 2.184-2.517 5.439-1.142 7.8.267Z" clip-rule="evenodd"/><defs><linearGradient id="a" x1="140.599" x2="140.599" y1="65.358" y2="56.446" gradientUnits="userSpaceOnUse"><stop stop-color="#A93B80"/><stop offset="1" stop-color="#4E76A8"/></linearGradient><linearGradient id="b" x1="142.579" x2="142.579" y1="178.24" y2="169.329" gradientUnits="userSpaceOnUse"><stop stop-color="#A93B80"/><stop offset="1" stop-color="#4E76A8"/></linearGradient><linearGradient id="c" x1="136.144" x2="136.144" y1="129.226" y2="117.344" gradientUnits="userSpaceOnUse"><stop stop-color="#DF607B"/><stop offset="1" stop-color="#D03383"/></linearGradient><linearGradient id="d" x1="78.223" x2="78.223" y1="278.25" y2="262.407" gradientUnits="userSpaceOnUse"><stop stop-color="#B3D097"/><stop offset="1" stop-color="#86BB61"/></linearGradient><linearGradient id="e" x1="73.272" x2="73.272" y1="176.26" y2="162.397" gradientUnits="userSpaceOnUse"><stop stop-color="#F4D944"/><stop offset="1" stop-color="#C9CD4F"/></linearGradient><linearGradient id="f" x1="118.816" x2="118.816" y1="142.593" y2="132.692" gradientUnits="userSpaceOnUse"><stop stop-color="#ECB769"/><stop offset="1" stop-color="#E9A94E"/></linearGradient><linearGradient id="g" x1="121.293" x2="121.293" y1="223.294" y2="212.402" gradientUnits="userSpaceOnUse"><stop stop-color="#DF607B"/><stop offset="1" stop-color="#D03383"/></linearGradient><linearGradient id="h" x1="131.193" x2="131.193" y1="255.971" y2="242.108" gradientUnits="userSpaceOnUse"><stop stop-color="#A93B80"/><stop offset="1" stop-color="#4E76A8"/></linearGradient><linearGradient id="i" x1="121.292" x2="121.292" y1="40.108" y2="30.206" gradientUnits="userSpaceOnUse"><stop stop-color="#D92F75"/><stop offset="1" stop-color="#E9A94E"/></linearGradient><linearGradient id="j" x1="98.024" x2="98.024" y1="65.358" y2="55.455" gradientUnits="userSpaceOnUse"><stop stop-color="#B03D6D"/><stop offset="1" stop-color="#A93B80"/></linearGradient><linearGradient id="k" x1="117.925" x2="102.813" y1="102.895" y2="106.119" gradientUnits="userSpaceOnUse"><stop stop-color="#56BFE0"/><stop offset="1" stop-color="#00A1D5"/></linearGradient><linearGradient id="l" x1="128.816" x2="113.704" y1="193.003" y2="196.227" gradientUnits="userSpaceOnUse"><stop stop-color="#56BFE0"/><stop offset="1" stop-color="#00A1D5"/></linearGradient><linearGradient id="m" x1="101.053" x2="99.712" y1="118.131" y2="120.866" gradientUnits="userSpaceOnUse"><stop stop-color="#56BFE0"/><stop offset="1" stop-color="#00A1D5"/></linearGradient><linearGradient id="n" x1="146.597" x2="145.257" y1="206.258" y2="208.994" gradientUnits="userSpaceOnUse"><stop stop-color="#56BFE0"/><stop offset="1" stop-color="#00A1D5"/></linearGradient><linearGradient id="o" x1="72.787" x2="71.809" y1="128.21" y2="130.218" gradientUnits="userSpaceOnUse"><stop stop-color="#B03D6D"/><stop offset="1" stop-color="#A93B80"/></linearGradient><linearGradient id="p" x1="130.213" x2="129.235" y1="91.573" y2="93.581" gradientUnits="userSpaceOnUse"><stop stop-color="#B03D6D"/><stop offset="1" stop-color="#A93B80"/></linearGradient><linearGradient id="q" x1="79.971" x2="79.328" y1="149.904" y2="152.201" gradientUnits="userSpaceOnUse"><stop stop-color="#A93B80"/><stop offset="1" stop-color="#4E76A8"/></linearGradient><linearGradient id="r" x1="133.436" x2="132.793" y1="278.629" y2="280.927" gradientUnits="userSpaceOnUse"><stop stop-color="#A93B80"/><stop offset="1" stop-color="#4E76A8"/></linearGradient><linearGradient id="s" x1="63.36" x2="62.013" y1="97.424" y2="99.998" gradientUnits="userSpaceOnUse"><stop stop-color="#F4D944"/><stop offset="1" stop-color="#C9CD4F"/></linearGradient><linearGradient id="t" x1="112.865" x2="111.518" y1="1.375" y2="3.949" gradientUnits="userSpaceOnUse"><stop stop-color="#F4D944"/><stop offset="1" stop-color="#C9CD4F"/></linearGradient></defs></svg>
