<svg width="35" height="45" viewBox="0 0 35 45" fill="none" xmlns="http://www.w3.org/2000/svg">
<path fill-rule="evenodd" clip-rule="evenodd" d="M7.99729 28.5386C-7.07758 15.8002 8.47881 -7.19734 25.9999 2.21531C42.9021 12.6696 30.7902 37.6538 12.2045 30.9676L4.50344 44.3062C4.28273 44.6885 3.79125 44.8188 3.40692 44.5969L0.592785 42.9722C0.208453 42.7503 0.0755444 42.2595 0.296257 41.8772L7.99729 28.5386ZM10.082 14.2805C7.98937 19.4843 10.5238 25.4286 15.7354 27.5397L15.7358 27.5453C20.9484 29.6448 26.8887 27.1185 28.9783 21.9151C30.2244 18.8075 30.1879 15.402 28.8752 12.3244C27.5615 9.24537 25.1271 6.86041 22.0178 5.61046C18.9083 4.35453 15.5021 4.38316 12.4259 5.68977C9.35215 6.9952 6.97373 9.42432 5.72844 12.527C4.37201 15.8897 4.33719 19.5692 5.47382 22.8894C5.80955 23.8461 7.30621 23.3543 6.98751 22.3896C5.97106 19.4241 6.0078 16.1334 7.21962 13.1289C9.28857 7.64271 16.0016 4.77499 21.4229 7.09377C24.1307 8.18164 26.2529 10.2614 27.3979 12.9444C28.5432 15.6285 28.5748 18.5999 27.4867 21.3112C25.7261 25.6963 20.7217 27.8251 16.3328 26.0569C11.9433 24.2827 9.81141 19.271 11.574 14.8846C12.8534 11.6998 16.4869 10.1553 19.6731 11.4406C21.2212 12.0619 22.431 13.2498 23.084 14.7807C23.7378 16.3119 23.7556 18.0073 23.1334 19.5546C22.339 21.5402 20.0725 22.506 18.0825 21.708C16.0959 20.9021 15.1244 18.633 15.9241 16.646C16.0793 16.258 16.3752 15.9559 16.7571 15.7949C17.1315 15.637 17.5457 15.6341 17.9254 15.7886C18.7067 16.0828 19.1093 17.032 18.7804 17.7935C18.6138 18.2026 18.8149 18.6716 19.2226 18.8386C19.6335 19.0065 20.1019 18.8114 20.2684 18.4023C20.5864 17.6226 20.5792 16.7668 20.249 15.9922C19.9186 15.2167 19.3024 14.6159 18.5225 14.3034C17.4528 13.8676 16.239 14.0427 15.2915 14.8249C14.8946 15.152 14.608 15.5973 14.4188 16.0745C13.3121 18.8709 14.6849 22.0598 17.4855 23.1917C20.302 24.3202 23.5045 22.957 24.624 20.1541C25.405 18.2127 25.382 16.083 24.5601 14.1573C23.7376 12.2312 22.2139 10.7399 20.2686 9.95412C16.2604 8.33742 11.6908 10.2783 10.082 14.2805Z" fill="#F90059"/>
</svg>
