<svg width="35" height="45" viewBox="0 0 35 45" xmlns="http://www.w3.org/2000/svg"><g transform="translate(-12 -6)" fill="none" fill-rule="evenodd"><rect x="2" y="4" width="50" height="50" rx="10"/><path d="M38 8.215C20.479-1.197 4.922 21.8 19.996 34.538l-7.7 13.339a.803.803 0 0 0 .297 1.095l2.814 1.625a.803.803 0 0 0 1.096-.29l7.701-13.34C42.791 43.654 54.902 18.67 38 8.216ZM27.735 33.54c-5.212-2.112-7.746-8.055-5.653-13.26 1.608-4.001 6.179-5.942 10.186-4.326a7.816 7.816 0 0 1 4.292 4.203 7.78 7.78 0 0 1 .064 5.997c-1.12 2.804-4.322 4.167-7.139 3.037-2.8-1.131-4.173-4.32-3.066-7.117.189-.477.475-.923.873-1.25.947-.78 2.161-.957 3.23-.521a3.134 3.134 0 0 1 1.727 1.69 3.109 3.109 0 0 1 .02 2.41.8.8 0 0 1-1.046.435.806.806 0 0 1-.443-1.044c.33-.762-.074-1.712-.855-2.005a1.534 1.534 0 0 0-2 .857c-.8 1.986.17 4.256 2.158 5.062a3.885 3.885 0 0 0 5.05-2.153 6.193 6.193 0 0 0-.05-4.774 6.192 6.192 0 0 0-3.41-3.34c-3.187-1.286-6.82.259-8.1 3.443-1.762 4.387.371 9.399 4.76 11.173 4.389 1.768 9.393-.36 11.153-4.746a10.867 10.867 0 0 0-.088-8.366 10.857 10.857 0 0 0-5.975-5.852c-5.422-2.318-12.135.55-14.204 6.036a13.264 13.264 0 0 0-.232 9.26c.319.965-1.177 1.457-1.513.501-1.137-3.321-1.102-7 .255-10.363a12.39 12.39 0 0 1 6.696-6.838 12.448 12.448 0 0 1 9.594-.08 12.458 12.458 0 0 1 6.858 6.715 12.463 12.463 0 0 1 .103 9.59c-2.09 5.204-8.031 7.73-13.243 5.63v-.004Z" fill="#F90059" fill-rule="nonzero"/></g></svg>